<svg width="171" height="29" viewBox="0 0 171 29" fill="none" xmlns="http://www.w3.org/2000/svg">
<path d="M2.256 23V6.2H4.824L12.168 18.464H10.824L18.048 6.2H20.616L20.64 23H17.688L17.664 10.832H18.288L12.144 21.08H10.752L4.512 10.832H5.232V23H2.256ZM30.6499 23.168C29.3379 23.168 28.1699 22.888 27.1459 22.328C26.1219 21.752 25.3139 20.968 24.7219 19.976C24.1299 18.984 23.8339 17.856 23.8339 16.592C23.8339 15.312 24.1299 14.184 24.7219 13.208C25.3139 12.216 26.1219 11.44 27.1459 10.88C28.1699 10.32 29.3379 10.04 30.6499 10.04C31.9779 10.04 33.1539 10.32 34.1779 10.88C35.2179 11.44 36.0259 12.208 36.6019 13.184C37.1939 14.16 37.4899 15.296 37.4899 16.592C37.4899 17.856 37.1939 18.984 36.6019 19.976C36.0259 20.968 35.2179 21.752 34.1779 22.328C33.1539 22.888 31.9779 23.168 30.6499 23.168ZM30.6499 20.6C31.3859 20.6 32.0419 20.44 32.6179 20.12C33.1939 19.8 33.6419 19.336 33.9619 18.728C34.2979 18.12 34.4659 17.408 34.4659 16.592C34.4659 15.76 34.2979 15.048 33.9619 14.456C33.6419 13.848 33.1939 13.384 32.6179 13.064C32.0419 12.744 31.3939 12.584 30.6739 12.584C29.9379 12.584 29.2819 12.744 28.7059 13.064C28.1459 13.384 27.6979 13.848 27.3619 14.456C27.0259 15.048 26.8579 15.76 26.8579 16.592C26.8579 17.408 27.0259 18.12 27.3619 18.728C27.6979 19.336 28.1459 19.8 28.7059 20.12C29.2819 20.44 29.9299 20.6 30.6499 20.6ZM43.4151 23L37.9191 10.184H41.0391L45.7671 21.488H44.2311L49.1271 10.184H52.0071L46.5111 23H43.4151ZM53.8821 23V10.184H56.8821V23H53.8821ZM55.3941 8.072C54.8341 8.072 54.3701 7.896 54.0021 7.544C53.6501 7.192 53.4741 6.768 53.4741 6.272C53.4741 5.76 53.6501 5.336 54.0021 5C54.3701 4.648 54.8341 4.472 55.3941 4.472C55.9541 4.472 56.4101 4.64 56.7621 4.976C57.1301 5.296 57.3141 5.704 57.3141 6.2C57.3141 6.728 57.1381 7.176 56.7861 7.544C56.4341 7.896 55.9701 8.072 55.3941 8.072ZM66.8436 23.168C65.4196 23.168 64.1716 22.888 63.0996 22.328C62.0436 21.752 61.2196 20.968 60.6276 19.976C60.0516 18.984 59.7636 17.856 59.7636 16.592C59.7636 15.312 60.0436 14.184 60.6036 13.208C61.1796 12.216 61.9636 11.44 62.9556 10.88C63.9636 10.32 65.1076 10.04 66.3876 10.04C67.6356 10.04 68.7476 10.312 69.7236 10.856C70.6996 11.4 71.4676 12.168 72.0276 13.16C72.5876 14.152 72.8676 15.32 72.8676 16.664C72.8676 16.792 72.8596 16.936 72.8436 17.096C72.8436 17.256 72.8356 17.408 72.8196 17.552H62.1396V15.56H71.2356L70.0596 16.184C70.0756 15.448 69.9236 14.8 69.6036 14.24C69.2836 13.68 68.8436 13.24 68.2836 12.92C67.7396 12.6 67.1076 12.44 66.3876 12.44C65.6516 12.44 65.0036 12.6 64.4436 12.92C63.8996 13.24 63.4676 13.688 63.1476 14.264C62.8436 14.824 62.6916 15.488 62.6916 16.256V16.736C62.6916 17.504 62.8676 18.184 63.2196 18.776C63.5716 19.368 64.0676 19.824 64.7076 20.144C65.3476 20.464 66.0836 20.624 66.9156 20.624C67.6356 20.624 68.2836 20.512 68.8596 20.288C69.4356 20.064 69.9476 19.712 70.3956 19.232L72.0036 21.08C71.4276 21.752 70.6996 22.272 69.8196 22.64C68.9556 22.992 67.9636 23.168 66.8436 23.168ZM79.7093 23.168C78.6373 23.168 77.6053 23.032 76.6133 22.76C75.6373 22.472 74.8613 22.128 74.2853 21.728L75.4373 19.448C76.0133 19.816 76.7013 20.12 77.5013 20.36C78.3013 20.6 79.1013 20.72 79.9013 20.72C80.8453 20.72 81.5253 20.592 81.9413 20.336C82.3733 20.08 82.5893 19.736 82.5893 19.304C82.5893 18.952 82.4453 18.688 82.1573 18.512C81.8693 18.32 81.4933 18.176 81.0293 18.08C80.5653 17.984 80.0453 17.896 79.4693 17.816C78.9093 17.736 78.3413 17.632 77.7653 17.504C77.2053 17.36 76.6933 17.16 76.2293 16.904C75.7653 16.632 75.3893 16.272 75.1013 15.824C74.8133 15.376 74.6693 14.784 74.6693 14.048C74.6693 13.232 74.9013 12.528 75.3652 11.936C75.8293 11.328 76.4773 10.864 77.3092 10.544C78.1573 10.208 79.1573 10.04 80.3093 10.04C81.1733 10.04 82.0453 10.136 82.9253 10.328C83.8053 10.52 84.5333 10.792 85.1093 11.144L83.9573 13.424C83.3493 13.056 82.7333 12.808 82.1093 12.68C81.5013 12.536 80.8933 12.464 80.2853 12.464C79.3733 12.464 78.6933 12.6 78.2453 12.872C77.8133 13.144 77.5973 13.488 77.5973 13.904C77.5973 14.288 77.7413 14.576 78.0293 14.768C78.3173 14.96 78.6933 15.112 79.1573 15.224C79.6213 15.336 80.1333 15.432 80.6933 15.512C81.2693 15.576 81.8373 15.68 82.3973 15.824C82.9573 15.968 83.4693 16.168 83.9333 16.424C84.4133 16.664 84.7973 17.008 85.0853 17.456C85.3733 17.904 85.5173 18.488 85.5173 19.208C85.5173 20.008 85.2773 20.704 84.7973 21.296C84.3333 21.888 83.6693 22.352 82.8053 22.688C81.9413 23.008 80.9093 23.168 79.7093 23.168ZM92.2288 23L88.1968 6.2H90.6688L94.3408 21.704H92.8528L102.837 6.2H105.333L94.5808 23H92.2288ZM103.803 23L106.323 10.28H108.627L106.107 23H103.803ZM108.147 7.832C107.715 7.832 107.363 7.696 107.091 7.424C106.835 7.152 106.707 6.824 106.707 6.44C106.707 5.992 106.859 5.616 107.163 5.312C107.467 4.992 107.867 4.832 108.363 4.832C108.779 4.832 109.123 4.968 109.395 5.24C109.683 5.496 109.827 5.808 109.827 6.176C109.827 6.672 109.675 7.072 109.371 7.376C109.067 7.68 108.659 7.832 108.147 7.832ZM116.578 23.144C115.33 23.144 114.25 22.92 113.338 22.472C112.426 22.008 111.722 21.368 111.226 20.552C110.73 19.72 110.482 18.744 110.482 17.624C110.482 16.184 110.794 14.904 111.418 13.784C112.042 12.664 112.89 11.784 113.962 11.144C115.05 10.488 116.282 10.16 117.658 10.16C118.81 10.16 119.81 10.384 120.658 10.832C121.506 11.264 122.162 11.888 122.626 12.704C123.106 13.52 123.346 14.504 123.346 15.656C123.346 15.944 123.33 16.24 123.298 16.544C123.266 16.832 123.226 17.104 123.178 17.36H112.162L112.45 15.68H122.074L121.138 16.256C121.282 15.36 121.218 14.608 120.946 14C120.674 13.376 120.242 12.904 119.65 12.584C119.074 12.248 118.378 12.08 117.562 12.08C116.602 12.08 115.754 12.312 115.018 12.776C114.298 13.224 113.738 13.856 113.338 14.672C112.938 15.472 112.738 16.416 112.738 17.504C112.738 18.656 113.066 19.552 113.722 20.192C114.394 20.816 115.41 21.128 116.77 21.128C117.57 21.128 118.314 21 119.002 20.744C119.69 20.472 120.258 20.112 120.706 19.664L121.69 21.32C121.082 21.912 120.322 22.368 119.41 22.688C118.498 22.992 117.554 23.144 116.578 23.144ZM127.776 23L125.352 10.28H127.44L129.576 21.8H128.496L135.072 10.28H137.04L139.224 21.8H138.144L144.648 10.28H146.832L139.704 23H137.448L135.312 12.488H136.008L129.984 23H127.776ZM152.297 23.144C151.049 23.144 149.969 22.92 149.057 22.472C148.145 22.008 147.441 21.368 146.945 20.552C146.449 19.72 146.201 18.744 146.201 17.624C146.201 16.184 146.513 14.904 147.137 13.784C147.761 12.664 148.609 11.784 149.681 11.144C150.769 10.488 152.001 10.16 153.377 10.16C154.529 10.16 155.529 10.384 156.377 10.832C157.225 11.264 157.881 11.888 158.345 12.704C158.825 13.52 159.065 14.504 159.065 15.656C159.065 15.944 159.049 16.24 159.017 16.544C158.985 16.832 158.945 17.104 158.897 17.36H147.881L148.169 15.68H157.793L156.857 16.256C157.001 15.36 156.937 14.608 156.665 14C156.393 13.376 155.961 12.904 155.369 12.584C154.793 12.248 154.097 12.08 153.281 12.08C152.321 12.08 151.473 12.312 150.737 12.776C150.017 13.224 149.457 13.856 149.057 14.672C148.657 15.472 148.457 16.416 148.457 17.504C148.457 18.656 148.785 19.552 149.441 20.192C150.113 20.816 151.129 21.128 152.489 21.128C153.289 21.128 154.033 21 154.721 20.744C155.409 20.472 155.977 20.112 156.425 19.664L157.409 21.32C156.801 21.912 156.041 22.368 155.129 22.688C154.217 22.992 153.273 23.144 152.297 23.144ZM160.897 23L163.417 10.28H165.625L164.905 13.976L164.665 13.064C165.257 11.992 166.009 11.24 166.921 10.808C167.833 10.376 168.961 10.16 170.305 10.16L169.873 12.392C169.777 12.376 169.681 12.368 169.585 12.368C169.489 12.368 169.385 12.368 169.273 12.368C168.009 12.368 166.961 12.712 166.129 13.4C165.313 14.088 164.761 15.168 164.473 16.64L163.201 23H160.897Z" fill="white"/>
</svg>
