<svg width="89" height="25" viewBox="0 0 89 25" fill="none" xmlns="http://www.w3.org/2000/svg">
<path d="M23.3031 7.85484L21.6499 7.33434L21.6099 7.32251L19.7426 6.7294H19.7251L20.4711 3.98926L16.5528 5.22144C16.4583 5.25135 16.3733 5.30268 16.3055 5.37077C16.2378 5.43886 16.1893 5.52157 16.1646 5.6114L15.2382 9.00991V9.03363L15.144 9.36277V9.38946L13.3118 16.0737L13.2879 16.0664L9.70991 14.9409L3.58735 13.0148L3.54901 13.0029L10.8664 10.6973L11.6299 7.89782V7.87558L11.9605 6.65971L9.86962 7.32251L9.83126 7.33434L0.800022 10.1738C0.692177 10.2078 0.598478 10.2723 0.532033 10.3582C0.465588 10.444 0.429719 10.5471 0.429443 10.6528V15.7134L8.78341 18.3409L9.75941 18.6478L12.3615 19.4663H12.3854V19.4886L11.7832 21.6964L15.5944 20.4983L15.6344 20.485C15.7509 20.4499 15.856 20.388 15.9398 20.305C16.0236 20.222 16.0833 20.1207 16.1135 20.0105L16.8835 17.1844L17.1166 16.3303L18.8035 10.1457V10.1234H18.821L22.3814 11.2429L27.8283 12.9555L27.79 12.9674L21.3543 14.9973L20.4502 18.3127L20.2538 19.0348L21.4997 18.6434L30.5677 15.7905C30.6758 15.7569 30.7698 15.6926 30.8363 15.6066C30.9028 15.5207 30.9385 15.4174 30.9383 15.3116V10.2524L23.3031 7.85484ZM15.7398 9.18931L15.6999 9.17594L15.7398 9.16411L15.7781 9.17594L15.7398 9.18931ZM19.3864 8.04167L19.3641 8.04904V8.02235L19.3848 8.01498L19.3864 8.04167Z" fill="white"/>
<path d="M47.3089 5.75997C47.3089 9.25972 45.807 11.0721 42.1963 11.0721H38.3795V0.447845H42.1963C45.8102 0.447845 47.3089 2.2446 47.3089 5.75997ZM45.2319 5.75997C45.2319 3.18203 44.6887 2.47895 42.1963 2.47895H40.4564V9.04099H42.1963C44.6919 9.04099 45.2319 8.27543 45.2319 5.75997Z" fill="white"/>
<path d="M55.4942 7.92462H50.8142C50.9772 8.68094 51.4659 9.10445 52.858 9.10445C53.576 9.11525 54.2925 9.03395 54.9907 8.86243V10.7986C54.2457 10.9926 53.4787 11.0841 52.7099 11.0709C49.2873 11.0709 48.7971 8.60532 48.7971 7.18347C48.7971 5.02046 49.7168 3.28098 52.1753 3.28098C54.5745 3.28098 55.4928 4.89946 55.4928 7.01708L55.4942 7.92462ZM50.7402 6.41205H53.5541C53.4949 5.54987 53.0654 5.24735 52.1471 5.24735C51.2585 5.24735 50.8291 5.59524 50.7402 6.41205Z" fill="white"/>
<path d="M64.4236 3.28098L61.9111 11.0721H58.7508L56.2383 3.28098H58.4189L60.2045 8.92387H60.4573L62.2429 3.28098H64.4236Z" fill="white"/>
<path d="M68.1442 8.94727V11.0721H66.6559V8.94727H68.1442Z" fill="white"/>
<path d="M50.2853 13.9053V24.5296H48.2584V18.7643H48.0152L45.4581 23.7327H43.2129L40.6558 18.7643H40.4064V24.5296H38.3795V13.9053H40.4064L44.2108 21.2954H44.4602L48.2646 13.9053H50.2853Z" fill="white"/>
<path d="M59.9589 22.5628V24.5295H56.8475V23.7731C56.4486 24.1665 55.8263 24.5295 54.6297 24.5295C52.6831 24.5295 51.7736 23.3495 51.7736 21.9577C51.7736 20.5659 52.6831 19.3859 54.6297 19.3859C55.8263 19.3859 56.4486 19.7338 56.8475 20.1423V18.7051H52.699V16.7384H58.9218V22.5628H59.9589ZM56.8475 21.9577C56.8475 21.3526 56.4327 21.171 55.3477 21.171C54.2627 21.171 53.8479 21.3526 53.8479 21.9577C53.8479 22.5628 54.2627 22.7444 55.3477 22.7444C56.4327 22.7444 56.8475 22.5628 56.8475 21.9577Z" fill="white"/>
<path d="M66.6559 18.7051H63.55V24.5295H61.4471V16.7384H66.6559V18.7051Z" fill="white"/>
<path d="M70.3765 13.9053V24.5296H68.1442V13.9053H70.3765Z" fill="white"/>
<path d="M71.8647 20.6264C71.8647 18.4025 73.1646 16.7384 75.5853 16.7384C78.006 16.7384 79.3059 18.4025 79.3059 20.6264C79.3059 22.8503 78.006 24.5295 75.5853 24.5295C73.1646 24.5295 71.8647 22.8503 71.8647 20.6264ZM77.3633 20.6264C77.3633 19.1135 76.9002 18.7051 75.5853 18.7051C74.2705 18.7051 73.8074 19.1135 73.8074 20.6264C73.8074 22.1392 74.2705 22.5628 75.5853 22.5628C76.9002 22.5628 77.3633 22.1392 77.3633 20.6264Z" fill="white"/>
<path d="M88.2354 24.5295H86.1775V18.7051H82.8527V24.5295H80.7942V16.7384H88.2354V24.5295Z" fill="white"/>
</svg>
